<svg width="6003" height="1315" viewBox="0 0 6003 1315" fill="none" xmlns="http://www.w3.org/2000/svg">
<mask id="mask0_1815_7327" style="mask-type:alpha" maskUnits="userSpaceOnUse" x="0" y="0" width="6003" height="1318">
<path d="M3 1065.74C67.9448 1139.08 274.599 1314.6 550.484 1314.6C895.341 1314.6 1177.85 1065.74 1448.67 1065.74C1719.49 1065.74 1682.47 1179.55 1953.29 1179.55C2224.11 1179.55 2237.75 1065.74 2506.62 1065.74C2775.49 1065.74 2798.87 1179.55 3022.93 1179.55C3246.99 1179.55 3223.61 1065.74 3550.93 1065.74C3819.8 1065.74 3786.68 1179.55 4090.62 1179.55C4394.57 1179.55 4414.05 1065.74 4603.04 1065.74C4945.95 1065.74 4981.02 1228.11 5341.46 1228.11C5701.9 1228.11 5939.6 1076.36 6000 979.242" stroke="#FF8170" stroke-width="6.06984"/>
<path d="M3 995.941C67.9448 1069.28 274.599 1244.8 550.484 1244.8C895.341 1244.8 1177.85 995.941 1448.67 995.941C1719.49 995.941 1682.47 1109.75 1953.29 1109.75C2224.11 1109.75 2237.75 995.941 2506.62 995.941C2775.49 995.941 2798.87 1109.75 3022.93 1109.75C3246.99 1109.75 3223.61 995.941 3550.93 995.941C3819.8 995.941 3786.68 1109.75 4090.62 1109.75C4394.57 1109.75 4414.05 995.941 4603.04 995.941C4945.95 995.941 4981.02 1158.31 5341.46 1158.31C5701.9 1158.31 5939.6 1006.56 6000 909.445" stroke="#FF8170" stroke-width="6.06984"/>
<path d="M3 926.128C67.9448 999.472 274.599 1174.99 550.484 1174.99C895.341 1174.99 1177.85 926.128 1448.67 926.128C1719.49 926.128 1682.47 1039.94 1953.29 1039.94C2224.11 1039.94 2237.75 926.128 2506.62 926.128C2775.49 926.128 2798.87 1039.94 3022.93 1039.94C3246.99 1039.94 3223.61 926.128 3550.93 926.128C3819.8 926.128 3786.68 1039.94 4090.62 1039.94C4394.57 1039.94 4414.05 926.128 4603.04 926.128C4945.95 926.128 4981.02 1088.5 5341.46 1088.5C5701.9 1088.5 5939.6 936.75 6000 839.633" stroke="#FF8170" stroke-width="6.06984"/>
<path d="M3 856.331C67.9448 929.675 274.599 1105.19 550.484 1105.19C895.341 1105.19 1177.85 856.331 1448.67 856.331C1719.49 856.331 1682.47 970.141 1953.29 970.141C2224.11 970.141 2237.75 856.331 2506.62 856.331C2775.49 856.331 2798.87 970.141 3022.93 970.141C3246.99 970.141 3223.61 856.331 3550.93 856.331C3819.8 856.331 3786.68 970.141 4090.62 970.141C4394.57 970.141 4414.05 856.331 4603.04 856.331C4945.95 856.331 4981.02 1018.7 5341.46 1018.7C5701.9 1018.7 5939.6 866.953 6000 769.836" stroke="#FF8170" stroke-width="6.06984"/>
<path d="M3 786.526C67.9448 859.87 274.599 1035.39 550.484 1035.39C895.341 1035.39 1177.85 786.526 1448.67 786.526C1719.49 786.526 1682.47 900.336 1953.29 900.336C2224.11 900.336 2237.75 786.526 2506.62 786.526C2775.49 786.526 2798.87 900.336 3022.93 900.336C3246.99 900.336 3223.61 786.526 3550.93 786.526C3819.8 786.526 3786.68 900.336 4090.62 900.336C4394.57 900.336 4414.05 786.526 4603.04 786.526C4945.95 786.526 4981.02 948.895 5341.46 948.895C5701.9 948.895 5939.6 797.149 6000 700.031" stroke="#FF8170" stroke-width="6.06984"/>
<path d="M3 716.73C67.9448 790.073 274.599 965.593 550.484 965.593C895.341 965.593 1177.85 716.73 1448.67 716.73C1719.49 716.73 1682.47 830.539 1953.29 830.539C2224.11 830.539 2237.75 716.73 2506.62 716.73C2775.49 716.73 2798.87 830.539 3022.93 830.539C3246.99 830.539 3223.61 716.73 3550.93 716.73C3819.8 716.73 3786.68 830.539 4090.62 830.539C4394.57 830.539 4414.05 716.73 4603.04 716.73C4945.95 716.73 4981.02 879.098 5341.46 879.098C5701.9 879.098 5939.6 727.352 6000 630.234" stroke="#FF8170" stroke-width="6.06984"/>
<path d="M3 646.917C67.9448 720.261 274.599 895.78 550.484 895.78C895.341 895.78 1177.85 646.917 1448.67 646.917C1719.49 646.917 1682.47 760.727 1953.29 760.727C2224.11 760.727 2237.75 646.917 2506.62 646.917C2775.49 646.917 2798.87 760.727 3022.93 760.727C3246.99 760.727 3223.61 646.917 3550.93 646.917C3819.8 646.917 3786.68 760.727 4090.62 760.727C4394.57 760.727 4414.05 646.917 4603.04 646.917C4945.95 646.917 4981.02 809.285 5341.46 809.285C5701.9 809.285 5939.6 657.539 6000 560.422" stroke="#FF8170" stroke-width="6.06984"/>
<path d="M3 577.12C67.9448 650.464 274.599 825.984 550.484 825.984C895.341 825.984 1177.85 577.12 1448.67 577.12C1719.49 577.12 1682.47 690.93 1953.29 690.93C2224.11 690.93 2237.75 577.12 2506.62 577.12C2775.49 577.12 2798.87 690.93 3022.93 690.93C3246.99 690.93 3223.61 577.12 3550.93 577.12C3819.8 577.12 3786.68 690.93 4090.62 690.93C4394.57 690.93 4414.05 577.12 4603.04 577.12C4945.95 577.12 4981.02 739.488 5341.46 739.488C5701.9 739.488 5939.6 587.742 6000 490.625" stroke="#FF8170" stroke-width="6.06984"/>
<path d="M3 507.316C67.9448 580.659 274.599 756.179 550.484 756.179C895.341 756.179 1177.85 507.316 1448.67 507.316C1719.49 507.316 1682.47 621.125 1953.29 621.125C2224.11 621.125 2237.75 507.316 2506.62 507.316C2775.49 507.316 2798.87 621.125 3022.93 621.125C3246.99 621.125 3223.61 507.316 3550.93 507.316C3819.8 507.316 3786.68 621.125 4090.62 621.125C4394.57 621.125 4414.05 507.316 4603.04 507.316C4945.95 507.316 4981.02 669.684 5341.46 669.684C5701.9 669.684 5939.6 517.938 6000 420.82" stroke="#FF8170" stroke-width="6.06984"/>
<path d="M3 437.503C67.9448 510.847 274.599 686.366 550.484 686.366C895.341 686.366 1177.85 437.503 1448.67 437.503C1719.49 437.503 1682.47 551.312 1953.29 551.312C2224.11 551.312 2237.75 437.503 2506.62 437.503C2775.49 437.503 2798.87 551.312 3022.93 551.312C3246.99 551.312 3223.61 437.503 3550.93 437.503C3819.8 437.503 3786.68 551.312 4090.62 551.312C4394.57 551.312 4414.05 437.503 4603.04 437.503C4945.95 437.503 4981.02 599.871 5341.46 599.871C5701.9 599.871 5939.6 448.125 6000 351.008" stroke="#FF8170" stroke-width="6.06984"/>
<path d="M3 367.706C67.9448 441.05 274.599 616.57 550.484 616.57C895.341 616.57 1177.85 367.706 1448.67 367.706C1719.49 367.706 1682.47 481.516 1953.29 481.516C2224.11 481.516 2237.75 367.706 2506.62 367.706C2775.49 367.706 2798.87 481.516 3022.93 481.516C3246.99 481.516 3223.61 367.706 3550.93 367.706C3819.8 367.706 3786.68 481.516 4090.62 481.516C4394.57 481.516 4414.05 367.706 4603.04 367.706C4945.95 367.706 4981.02 530.074 5341.46 530.074C5701.9 530.074 5939.6 378.328 6000 281.211" stroke="#FF8170" stroke-width="6.06984"/>
<path d="M3 297.909C67.9448 371.253 274.599 546.773 550.484 546.773C895.341 546.773 1177.85 297.909 1448.67 297.909C1719.49 297.909 1682.47 411.719 1953.29 411.719C2224.11 411.719 2237.75 297.909 2506.62 297.909C2775.49 297.909 2798.87 411.719 3022.93 411.719C3246.99 411.719 3223.61 297.909 3550.93 297.909C3819.8 297.909 3786.68 411.719 4090.62 411.719C4394.57 411.719 4414.05 297.909 4603.04 297.909C4945.95 297.909 4981.02 460.277 5341.46 460.277C5701.9 460.277 5939.6 308.531 6000 211.414" stroke="#FF8170" stroke-width="6.06984"/>
<path d="M3 228.112C67.9448 301.456 274.599 476.976 550.484 476.976C895.341 476.976 1177.85 228.112 1448.67 228.112C1719.49 228.112 1682.47 341.922 1953.29 341.922C2224.11 341.922 2237.75 228.112 2506.62 228.112C2775.49 228.112 2798.87 341.922 3022.93 341.922C3246.99 341.922 3223.61 228.112 3550.93 228.112C3819.8 228.112 3786.68 341.922 4090.62 341.922C4394.57 341.922 4414.05 228.112 4603.04 228.112C4945.95 228.112 4981.02 390.481 5341.46 390.481C5701.9 390.481 5939.6 238.735 6000 141.617" stroke="#FF8170" stroke-width="6.06984"/>
<path d="M3 158.292C67.9448 231.636 274.599 407.155 550.484 407.155C895.341 407.155 1177.85 158.292 1448.67 158.292C1719.49 158.292 1682.47 272.102 1953.29 272.102C2224.11 272.102 2237.75 158.292 2506.62 158.292C2775.49 158.292 2798.87 272.102 3022.93 272.102C3246.99 272.102 3223.61 158.292 3550.93 158.292C3819.8 158.292 3786.68 272.102 4090.62 272.102C4394.57 272.102 4414.05 158.292 4603.04 158.292C4945.95 158.292 4981.02 320.66 5341.46 320.66C5701.9 320.66 5939.6 168.914 6000 71.7969" stroke="#FF8170" stroke-width="6.06984"/>
<path d="M3 88.4952C67.9448 161.839 274.599 337.359 550.484 337.359C895.341 337.359 1177.85 88.4952 1448.67 88.4952C1719.49 88.4952 1682.47 202.305 1953.29 202.305C2224.11 202.305 2237.75 88.4952 2506.62 88.4952C2775.49 88.4952 2798.87 202.305 3022.93 202.305C3246.99 202.305 3223.61 88.4952 3550.93 88.4952C3819.8 88.4952 3786.68 202.305 4090.62 202.305C4394.57 202.305 4414.05 88.4952 4603.04 88.4952C4945.95 88.4952 4981.02 250.863 5341.46 250.863C5701.9 250.863 5939.6 99.1174 6000 2" stroke="#FF8170" stroke-width="6.06984"/>
</mask>
<g mask="url(#mask0_1815_7327)">
<rect x="-990.928" y="-236.24" width="7711.73" height="1438.55" fill="#FF8170" stroke="#FF8170" stroke-width="3.03492"/>
</g>
</svg>
