<svg width="349" height="153" viewBox="0 0 349 153" fill="none" xmlns="http://www.w3.org/2000/svg">
<path fill-rule="evenodd" clip-rule="evenodd" d="M14.6586 103.012V150.532H0V61.8937L19.7047 60.3654L34.8693 118.07L50.0167 57.9701L70.1628 56.4062L69.2326 150.532H53.6952L54.3421 100.575L41.8679 150.386H27.2712L14.6586 103.012Z" fill="#121212"/>
<path fill-rule="evenodd" clip-rule="evenodd" d="M219.881 94.3305V150.547H202.539V45.6867L225.85 43.8791L243.79 112.143L261.71 41.0451L285.542 39.1953L284.442 150.547H266.062L266.827 91.4465L252.07 150.375H234.801L219.881 94.3305Z" fill="#121212"/>
<path fill-rule="evenodd" clip-rule="evenodd" d="M292.969 64.9503C292.969 56.9926 294.691 48.9953 300.006 42.828C305.336 36.641 312.916 34.5 320.874 34.5C328.853 34.5 336.433 36.6528 341.81 42.8175C347.18 48.9729 348.937 56.9649 348.937 64.9503V122.54C348.937 130.527 347.18 138.516 341.81 144.673C336.433 150.838 328.853 152.99 320.874 152.99C312.926 152.99 305.442 150.802 300.095 144.673C294.725 138.518 292.969 130.527 292.969 122.54V64.9503ZM310.119 123.176C310.119 126.663 310.65 130.763 312.916 133.569C314.907 136.034 317.799 136.794 320.874 136.794C329.485 136.794 331.627 130.829 331.627 123.176V64.314C331.627 60.816 331.083 56.8107 328.879 53.961C326.921 51.4313 323.958 50.6962 320.874 50.6962C317.775 50.6962 314.911 51.4854 312.93 53.9834C310.683 56.82 310.119 60.8015 310.119 64.314V123.176Z" fill="#121212"/>
<path fill-rule="evenodd" clip-rule="evenodd" d="M106.246 116.656C99.3661 114.165 93.3345 114.011 88.3846 115.498C87.7483 115.689 87.1291 115.909 86.5283 116.155C83.801 117.268 82.1739 119.904 82.4045 122.84L84.0935 144.428C84.3662 147.903 87.2476 150.568 90.7325 150.568H181.323C184.808 150.568 187.689 147.903 187.962 144.428L190.131 116.703C190.307 114.451 189.44 112.435 187.688 111.012C185.935 109.589 183.783 109.159 181.616 109.794C181.335 109.877 181.054 109.964 180.775 110.054C175.098 111.908 169.641 115.512 166.431 118.115C165.615 118.778 164.687 119.569 163.744 120.373C153.804 128.853 142.176 138.775 117.636 122.527C113.633 119.878 109.827 117.952 106.247 116.656H106.246Z" fill="#C1121F"/>
<path fill-rule="evenodd" clip-rule="evenodd" d="M88.7378 107.594C94.6033 106.384 101.381 106.835 108.832 109.534C112.967 111.03 117.311 113.22 121.819 116.204C141.613 129.308 150.902 121.383 158.84 114.611C159.763 113.824 160.67 113.05 161.675 112.235C165.397 109.215 171.758 105.028 178.447 102.842C180.816 102.069 183.239 101.536 185.634 101.373C188.953 101.145 191.558 98.5641 191.817 95.2479L193.049 79.4931C193.207 77.4734 192.538 75.671 191.099 74.2455C189.66 72.8186 187.853 72.1651 185.836 72.3404C184.197 72.4826 182.488 72.874 180.786 73.4313C175.109 75.2863 169.651 78.8884 166.442 81.4918C165.625 82.1545 164.698 82.945 163.754 83.75C153.815 92.2295 142.187 102.152 117.647 85.9055C113.644 83.2559 109.838 81.3297 106.258 80.0333C99.378 77.5432 93.3464 77.3877 88.3965 78.8752C86.1989 79.5366 84.2055 80.5287 82.4414 81.7882C80.4849 83.1835 79.4836 85.3323 79.6706 87.7276L80.755 101.593C80.9104 103.567 81.809 105.207 83.3926 106.397C84.9763 107.586 86.7997 107.996 88.7404 107.594H88.7378Z" fill="#DF3440"/>
<path fill-rule="evenodd" clip-rule="evenodd" d="M108.818 72.9398C112.952 74.4365 117.296 76.6262 121.805 79.6103C141.599 92.7143 150.888 84.7895 158.826 78.0175C159.749 77.2296 160.656 76.4562 161.661 75.6407C165.383 72.6209 171.744 68.4339 178.433 66.2481C181.532 65.235 184.724 64.6381 187.824 64.7356C191.381 64.8476 194.393 62.1467 194.671 58.6L195.062 53.5868C195.219 51.5763 194.558 49.7845 193.132 48.359C191.707 46.9347 189.914 46.272 187.904 46.4288L83.7405 54.575C80.0844 54.8609 77.3361 58.0769 77.622 61.733L77.9316 65.6974C78.0937 67.7646 79.0792 69.4787 80.7867 70.6578C82.4941 71.837 84.4454 72.1519 86.4375 71.5709C92.8037 69.7119 100.378 69.8845 108.819 72.9411L108.818 72.9398Z" fill="#FF5964"/>
<path fill-rule="evenodd" clip-rule="evenodd" d="M266.711 4.19374C262.994 5.55077 261.813 6.09227 259.392 8.38869C257.869 9.83532 256.063 12.8524 255.643 15.7773C246.22 15.083 240.623 13.8722 230.257 15.6403C203.253 20.245 183.147 39.3449 166.625 40.8377L168.044 39.8114C168.531 39.5294 168.983 39.3423 169.513 39.0709C191.65 27.7192 203.385 8.26353 235.664 3.5587C242.374 2.5811 261.633 2.1292 266.711 4.19374Z" fill="#C1121F"/>
<path fill-rule="evenodd" clip-rule="evenodd" d="M150.552 42.6189C152.708 40.5385 171.092 32.4543 175.801 21.2172C177.778 16.5032 176.149 12.2371 173.058 9.82997C165.372 3.84319 158.346 11.9064 154.361 17.7983C150.484 23.5295 148.153 31.5017 145.442 38.7559C144.882 29.9681 149.023 15.3635 152.448 9.53221C157.638 0.696975 168.019 -3.78257 177.912 4.02501C187.075 11.2555 185.88 23.0775 178.153 29.843C171.853 35.3581 160.873 40.8257 150.552 42.6202V42.6189Z" fill="#C1121F"/>
<path fill-rule="evenodd" clip-rule="evenodd" d="M135.358 38.5201C133.555 36.3844 131.801 33.7217 129.922 31.4055C128.244 29.3357 125.723 26.2699 123.74 24.735C119.219 21.2356 111.984 15.5954 106.557 21.7613C101.863 27.0959 106.423 33.6216 113.079 37.0287C121.182 41.1775 127.813 41.5398 131.028 42.831L131.653 43.1248C122.83 44.2934 111.903 42.5214 105.61 38.9456C92.2124 31.3304 98.7775 12.6165 112.632 12.5704C123.684 12.5335 133.204 30.196 135.357 38.5214L135.358 38.5201Z" fill="#C1121F"/>
<path fill-rule="evenodd" clip-rule="evenodd" d="M113.574 45.5271C100.545 46.7761 85.9216 35.6431 65.2314 40.5522C62.9311 41.0976 60.6874 42.1885 58.5135 42.6563C57.167 41.2531 56.7981 40.2768 55.2763 39.1438C53.5227 37.8381 52.2408 38.0423 50.3594 37.2242C70.9903 30.3902 80.2142 31.2242 99.1679 40.0858C103.853 42.2768 112.899 45.1582 113.574 45.5258V45.5271Z" fill="#C1121F"/>
<path fill-rule="evenodd" clip-rule="evenodd" d="M142.146 31.3095C142.117 28.8826 145.601 11.2438 136.205 13.5428C127.882 15.5784 137.566 29.9907 138.347 31.7653C132.803 28.8971 123.187 13.4519 135.217 10.0527C140.858 8.45856 144.947 12.1687 145.439 17.4703C145.812 21.4822 143.841 28.6929 142.146 31.3095Z" fill="#C1121F"/>
</svg>
