<svg width="396" height="174" viewBox="0 0 396 174" fill="none" xmlns="http://www.w3.org/2000/svg">
<path fill-rule="evenodd" clip-rule="evenodd" d="M16.6253 116.852V170.748H0V70.2168L22.3478 68.484L39.5482 133.93L56.7283 65.7653L79.5773 63.9922L78.5213 170.748H60.8995L61.633 114.087L47.4845 170.583H30.9302L16.6253 116.852Z" fill="#FDF0D5"/>
<path fill-rule="evenodd" clip-rule="evenodd" d="M120.496 132.29C112.694 129.465 105.853 129.289 100.238 130.976C99.5156 131.193 98.8139 131.443 98.1313 131.72C95.0382 132.982 93.1931 135.972 93.4542 139.303L95.3694 163.788C95.6785 167.729 98.9463 170.752 102.899 170.752H205.646C209.598 170.752 212.867 167.729 213.175 163.788L215.635 132.341C215.835 129.788 214.853 127.501 212.865 125.886C210.876 124.272 208.434 123.783 205.978 124.505C205.66 124.598 205.342 124.698 205.023 124.801C198.586 126.905 192.395 130.99 188.755 133.943C187.829 134.695 186.777 135.592 185.707 136.505C174.434 146.122 161.245 157.375 133.412 138.949C128.872 135.944 124.555 133.759 120.495 132.29H120.496Z" fill="#FDF0D5"/>
<path fill-rule="evenodd" clip-rule="evenodd" d="M100.63 122.03C107.284 120.657 114.969 121.17 123.42 124.23C128.109 125.928 133.037 128.411 138.149 131.796C160.599 146.658 171.133 137.671 180.137 129.99C181.185 129.097 182.213 128.219 183.353 127.294C187.574 123.869 194.79 119.12 202.376 116.642C205.062 115.765 207.811 115.161 210.527 114.976C214.29 114.718 217.246 111.791 217.541 108.03L218.938 90.1601C219.118 87.8696 218.359 85.8257 216.727 84.2081C215.095 82.5905 213.045 81.8485 210.756 82.0472C208.897 82.2085 206.96 82.6529 205.028 83.2837C198.59 85.387 192.399 89.4728 188.76 92.4257C187.833 93.1774 186.781 94.0741 185.712 94.987C174.439 104.604 161.249 115.856 133.417 97.4312C128.877 94.4264 124.56 92.2414 120.5 90.7717C112.697 87.9473 105.856 87.7707 100.241 89.4584C97.748 90.2081 95.4882 91.3342 93.4876 92.7617C91.269 94.3448 90.1333 96.7813 90.3455 99.4981L91.5752 115.225C91.7509 117.464 92.7714 119.323 94.5666 120.673C96.3618 122.023 98.4316 122.486 100.631 122.032L100.63 122.03Z" fill="#FDF0D5"/>
<path fill-rule="evenodd" clip-rule="evenodd" d="M123.421 82.7102C128.11 84.4084 133.038 86.8919 138.15 90.2769C160.6 105.14 171.134 96.1511 180.138 88.4702C181.186 87.5774 182.214 86.6999 183.354 85.7745C187.575 82.3502 194.791 77.6001 202.377 75.1223C205.89 73.9742 209.511 73.2964 213.028 73.4068C217.062 73.5326 220.479 70.4702 220.793 66.4468L221.238 60.7607C221.416 58.4807 220.666 56.4484 219.049 54.8318C217.432 53.2151 215.399 52.4644 213.12 52.643L94.9795 61.883C90.8323 62.2075 87.7152 65.8545 88.0387 70.0017L88.3901 74.4974C88.5734 76.8427 89.6918 78.7867 91.6281 80.123C93.5645 81.4603 95.7782 81.8183 98.0371 81.1579C105.258 79.0487 113.848 79.2455 123.422 82.7121L123.421 82.7102Z" fill="#FDF0D5"/>
<path fill-rule="evenodd" clip-rule="evenodd" d="M249.379 106.994V170.755H229.711V51.8241L256.149 49.7745L276.497 127.198L296.822 46.5585L323.852 44.4609L322.604 170.755H301.756L302.625 103.724L285.887 170.56H266.302L249.379 106.994Z" fill="#FDF0D5"/>
<path fill-rule="evenodd" clip-rule="evenodd" d="M332.297 73.6766C332.297 64.6517 334.25 55.5806 340.277 48.587C346.324 41.5694 354.92 39.1406 363.945 39.1406C372.994 39.1406 381.593 41.5829 387.691 48.5745C393.781 55.5557 395.773 64.62 395.773 73.6766V138.994C395.773 148.052 393.781 157.115 387.691 164.097C381.593 171.089 372.994 173.53 363.945 173.53C354.931 173.53 346.442 171.048 340.379 164.097C334.289 157.115 332.297 148.053 332.297 138.994V73.6766ZM351.747 139.716C351.747 143.67 352.349 148.32 354.92 151.503C357.179 154.299 360.458 155.161 363.945 155.161C373.712 155.161 376.142 148.396 376.142 139.716V72.9547C376.142 68.988 375.525 64.4443 373.024 61.2129C370.803 58.3445 367.442 57.5102 363.945 57.5102C360.431 57.5102 357.182 58.4049 354.936 61.2398C352.387 64.4558 351.747 68.9726 351.747 72.9557V139.717V139.716Z" fill="#FDF0D5"/>
<path fill-rule="evenodd" clip-rule="evenodd" d="M302.491 4.76561C298.275 6.30353 296.935 6.91793 294.191 9.52433C292.463 11.164 290.415 14.5864 289.939 17.9042C279.252 17.116 272.903 15.7432 261.146 17.7477C230.519 22.9701 207.714 44.6335 188.977 46.3259L190.586 45.1615C191.138 44.8418 191.651 44.6296 192.251 44.3215C217.358 31.4469 230.669 9.38129 267.279 4.04465C274.89 2.93489 296.734 2.42321 302.492 4.76561H302.491Z" fill="#FDF0D5"/>
<path fill-rule="evenodd" clip-rule="evenodd" d="M170.722 48.3391C173.167 45.9804 194.018 36.8105 199.358 24.0645C201.599 18.7173 199.752 13.8799 196.247 11.1497C187.528 4.36054 179.56 13.5036 175.041 20.1871C170.644 26.6873 168 35.7285 164.925 43.9567C164.291 33.99 168.986 17.4252 172.872 10.8117C178.759 0.790302 190.531 -4.29002 201.752 4.56502C212.145 12.7663 210.79 26.1746 202.025 33.8469C194.879 40.1023 182.427 46.3029 170.722 48.3391Z" fill="#FDF0D5"/>
<path fill-rule="evenodd" clip-rule="evenodd" d="M153.519 43.6924C151.473 41.2694 149.485 38.2502 147.353 35.6227C145.449 33.2755 142.59 29.7964 140.342 28.0569C135.214 24.0892 127.008 17.6899 120.854 24.6835C115.529 30.7334 120.702 38.134 128.251 41.999C137.44 46.7049 144.961 47.1168 148.607 48.5788L149.317 48.9129C139.31 50.2387 126.916 48.2284 119.78 44.1724C104.585 35.5353 112.03 14.3107 127.745 14.2579C140.278 14.2156 151.077 34.2489 153.519 43.6915V43.6924Z" fill="#FDF0D5"/>
<path fill-rule="evenodd" clip-rule="evenodd" d="M128.805 51.6319C114.029 53.0479 97.4428 40.423 73.9766 45.99C71.3673 46.6092 68.8223 47.8457 66.3571 48.3766C64.8297 46.7859 64.4121 45.6771 62.686 44.3926C60.6969 42.9123 59.2425 43.1436 57.1094 42.2163C80.5084 34.4643 90.9695 35.4108 112.467 45.462C117.781 47.9465 128.04 51.2163 128.805 51.6319Z" fill="#FDF0D5"/>
<path fill-rule="evenodd" clip-rule="evenodd" d="M161.219 35.5002C161.186 32.7479 165.139 12.7424 154.48 15.3498C145.042 17.6586 156.023 34.0055 156.91 36.0176C150.622 32.7652 139.715 15.2461 153.36 11.3917C159.758 9.58404 164.395 13.7917 164.954 19.8042C165.377 24.3546 163.141 32.5328 161.218 35.5002H161.219Z" fill="#FDF0D5"/>
</svg>
