<svg width="1977" height="434" viewBox="0 0 1977 434" fill="none" xmlns="http://www.w3.org/2000/svg">
<mask id="mask0_1801_7260" style="mask-type:alpha" maskUnits="userSpaceOnUse" x="0" y="0" width="1978" height="435">
<path d="M1 351.5C22.3992 375.667 90.4914 433.5 181.395 433.5C295.025 433.5 388.111 351.5 477.346 351.5C566.58 351.5 554.383 389 643.617 389C732.852 389 737.346 351.5 825.938 351.5C914.531 351.5 922.235 389 996.062 389C1069.89 389 1062.19 351.5 1170.04 351.5C1258.63 351.5 1247.72 389 1347.86 389C1448.01 389 1454.43 351.5 1516.7 351.5C1629.69 351.5 1641.25 405 1760.01 405C1878.78 405 1957.1 355 1977 323" stroke="#4242AA" stroke-opacity="0.11" stroke-width="2"/>
<path d="M1 328.5C22.3992 352.667 90.4914 410.5 181.395 410.5C295.025 410.5 388.111 328.5 477.346 328.5C566.58 328.5 554.383 366 643.617 366C732.852 366 737.346 328.5 825.938 328.5C914.531 328.5 922.235 366 996.062 366C1069.89 366 1062.19 328.5 1170.04 328.5C1258.63 328.5 1247.72 366 1347.86 366C1448.01 366 1454.43 328.5 1516.7 328.5C1629.69 328.5 1641.25 382 1760.01 382C1878.78 382 1957.1 332 1977 300" stroke="#4242AA" stroke-opacity="0.11" stroke-width="2"/>
<path d="M1 305.5C22.3992 329.667 90.4914 387.5 181.395 387.5C295.025 387.5 388.111 305.5 477.346 305.5C566.58 305.5 554.383 343 643.617 343C732.852 343 737.346 305.5 825.938 305.5C914.531 305.5 922.235 343 996.062 343C1069.89 343 1062.19 305.5 1170.04 305.5C1258.63 305.5 1247.72 343 1347.86 343C1448.01 343 1454.43 305.5 1516.7 305.5C1629.69 305.5 1641.25 359 1760.01 359C1878.78 359 1957.1 309 1977 277" stroke="#4242AA" stroke-opacity="0.11" stroke-width="2"/>
<path d="M1 282.5C22.3992 306.667 90.4914 364.5 181.395 364.5C295.025 364.5 388.111 282.5 477.346 282.5C566.58 282.5 554.383 320 643.617 320C732.852 320 737.346 282.5 825.938 282.5C914.531 282.5 922.235 320 996.062 320C1069.89 320 1062.19 282.5 1170.04 282.5C1258.63 282.5 1247.72 320 1347.86 320C1448.01 320 1454.43 282.5 1516.7 282.5C1629.69 282.5 1641.25 336 1760.01 336C1878.78 336 1957.1 286 1977 254" stroke="#4242AA" stroke-opacity="0.11" stroke-width="2"/>
<path d="M1 259.5C22.3992 283.667 90.4914 341.5 181.395 341.5C295.025 341.5 388.111 259.5 477.346 259.5C566.58 259.5 554.383 297 643.617 297C732.852 297 737.346 259.5 825.938 259.5C914.531 259.5 922.235 297 996.062 297C1069.89 297 1062.19 259.5 1170.04 259.5C1258.63 259.5 1247.72 297 1347.86 297C1448.01 297 1454.43 259.5 1516.7 259.5C1629.69 259.5 1641.25 313 1760.01 313C1878.78 313 1957.1 263 1977 231" stroke="#4242AA" stroke-opacity="0.11" stroke-width="2"/>
<path d="M1 236.5C22.3992 260.667 90.4914 318.5 181.395 318.5C295.025 318.5 388.111 236.5 477.346 236.5C566.58 236.5 554.383 274 643.617 274C732.852 274 737.346 236.5 825.938 236.5C914.531 236.5 922.235 274 996.062 274C1069.89 274 1062.19 236.5 1170.04 236.5C1258.63 236.5 1247.72 274 1347.86 274C1448.01 274 1454.43 236.5 1516.7 236.5C1629.69 236.5 1641.25 290 1760.01 290C1878.78 290 1957.1 240 1977 208" stroke="#4242AA" stroke-opacity="0.11" stroke-width="2"/>
<path d="M1 213.5C22.3992 237.667 90.4914 295.5 181.395 295.5C295.025 295.5 388.111 213.5 477.346 213.5C566.58 213.5 554.383 251 643.617 251C732.852 251 737.346 213.5 825.938 213.5C914.531 213.5 922.235 251 996.062 251C1069.89 251 1062.19 213.5 1170.04 213.5C1258.63 213.5 1247.72 251 1347.86 251C1448.01 251 1454.43 213.5 1516.7 213.5C1629.69 213.5 1641.25 267 1760.01 267C1878.78 267 1957.1 217 1977 185" stroke="#4242AA" stroke-opacity="0.11" stroke-width="2"/>
<path d="M1 190.5C22.3992 214.667 90.4914 272.5 181.395 272.5C295.025 272.5 388.111 190.5 477.346 190.5C566.58 190.5 554.383 228 643.617 228C732.852 228 737.346 190.5 825.938 190.5C914.531 190.5 922.235 228 996.062 228C1069.89 228 1062.19 190.5 1170.04 190.5C1258.63 190.5 1247.72 228 1347.86 228C1448.01 228 1454.43 190.5 1516.7 190.5C1629.69 190.5 1641.25 244 1760.01 244C1878.78 244 1957.1 194 1977 162" stroke="#4242AA" stroke-opacity="0.11" stroke-width="2"/>
<path d="M1 167.5C22.3992 191.667 90.4914 249.5 181.395 249.5C295.025 249.5 388.111 167.5 477.346 167.5C566.58 167.5 554.383 205 643.617 205C732.852 205 737.346 167.5 825.938 167.5C914.531 167.5 922.235 205 996.062 205C1069.89 205 1062.19 167.5 1170.04 167.5C1258.63 167.5 1247.72 205 1347.86 205C1448.01 205 1454.43 167.5 1516.7 167.5C1629.69 167.5 1641.25 221 1760.01 221C1878.78 221 1957.1 171 1977 139" stroke="#4242AA" stroke-opacity="0.11" stroke-width="2"/>
<path d="M1 144.5C22.3992 168.667 90.4914 226.5 181.395 226.5C295.025 226.5 388.111 144.5 477.346 144.5C566.58 144.5 554.383 182 643.617 182C732.852 182 737.346 144.5 825.938 144.5C914.531 144.5 922.235 182 996.062 182C1069.89 182 1062.19 144.5 1170.04 144.5C1258.63 144.5 1247.72 182 1347.86 182C1448.01 182 1454.43 144.5 1516.7 144.5C1629.69 144.5 1641.25 198 1760.01 198C1878.78 198 1957.1 148 1977 116" stroke="#4242AA" stroke-opacity="0.11" stroke-width="2"/>
<path d="M1 121.5C22.3992 145.667 90.4914 203.5 181.395 203.5C295.025 203.5 388.111 121.5 477.346 121.5C566.58 121.5 554.383 159 643.617 159C732.852 159 737.346 121.5 825.938 121.5C914.531 121.5 922.235 159 996.062 159C1069.89 159 1062.19 121.5 1170.04 121.5C1258.63 121.5 1247.72 159 1347.86 159C1448.01 159 1454.43 121.5 1516.7 121.5C1629.69 121.5 1641.25 175 1760.01 175C1878.78 175 1957.1 125 1977 93" stroke="#4242AA" stroke-opacity="0.11" stroke-width="2"/>
<path d="M1 98.5C22.3992 122.667 90.4914 180.5 181.395 180.5C295.025 180.5 388.111 98.5 477.346 98.5C566.58 98.5 554.383 136 643.617 136C732.852 136 737.346 98.5 825.938 98.5C914.531 98.5 922.235 136 996.062 136C1069.89 136 1062.19 98.5 1170.04 98.5C1258.63 98.5 1247.72 136 1347.86 136C1448.01 136 1454.43 98.5 1516.7 98.5C1629.69 98.5 1641.25 152 1760.01 152C1878.78 152 1957.1 102 1977 70" stroke="#4242AA" stroke-opacity="0.11" stroke-width="2"/>
<path d="M1 75.5C22.3992 99.6667 90.4914 157.5 181.395 157.5C295.025 157.5 388.111 75.5 477.346 75.5C566.58 75.5 554.383 113 643.617 113C732.852 113 737.346 75.5 825.938 75.5C914.531 75.5 922.235 113 996.062 113C1069.89 113 1062.19 75.5 1170.04 75.5C1258.63 75.5 1247.72 113 1347.86 113C1448.01 113 1454.43 75.5 1516.7 75.5C1629.69 75.5 1641.25 129 1760.01 129C1878.78 129 1957.1 79 1977 47" stroke="#4242AA" stroke-opacity="0.11" stroke-width="2"/>
<path d="M1 52.5C22.3992 76.6667 90.4914 134.5 181.395 134.5C295.025 134.5 388.111 52.5 477.346 52.5C566.58 52.5 554.383 90 643.617 90C732.852 90 737.346 52.5 825.938 52.5C914.531 52.5 922.235 90 996.062 90C1069.89 90 1062.19 52.5 1170.04 52.5C1258.63 52.5 1247.72 90 1347.86 90C1448.01 90 1454.43 52.5 1516.7 52.5C1629.69 52.5 1641.25 106 1760.01 106C1878.78 106 1957.1 56 1977 24" stroke="#4242AA" stroke-opacity="0.11" stroke-width="2"/>
<path d="M1 29.5C22.3992 53.6667 90.4914 111.5 181.395 111.5C295.025 111.5 388.111 29.5 477.346 29.5C566.58 29.5 554.383 67 643.617 67C732.852 67 737.346 29.5 825.938 29.5C914.531 29.5 922.235 67 996.062 67C1069.89 67 1062.19 29.5 1170.04 29.5C1258.63 29.5 1247.72 67 1347.86 67C1448.01 67 1454.43 29.5 1516.7 29.5C1629.69 29.5 1641.25 83 1760.01 83C1878.78 83 1957.1 33 1977 1" stroke="#4242AA" stroke-opacity="0.11" stroke-width="2"/>
</mask>
<g mask="url(#mask0_1801_7260)">
<rect x="-326.633" y="-22" width="1941.33" height="363" fill="#C1121F"/>
</g>
</svg>
